
<svg version="1.0" xmlns="http://www.w3.org/2000/svg"
 width="80.000000pt" height="80.000000pt" viewBox="0 0 80.000000 80.000000"
 preserveAspectRatio="xMidYMid meet">

<g transform="translate(0.000000,80.000000) scale(0.100000,-0.100000)"
fill="#000000" stroke="none">
<path d="M450 772 c0 -16 58 -64 62 -52 6 18 79 -22 112 -60 44 -53 31 -103
-46 -176 -56 -54 -143 -112 -258 -173 l-92 -49 -64 -121 c-36 -66 -60 -121
-55 -121 12 0 323 215 406 280 83 66 173 162 190 204 8 20 15 58 15 85 0 42
-5 56 -32 87 -18 21 -59 49 -91 65 -32 15 -52 29 -45 32 7 3 -13 6 -44 6 -32
1 -58 -3 -58 -7z"/>
<path d="M80 605 l0 -35 230 0 230 0 0 35 0 35 -230 0 -230 0 0 -35z"/>
<path d="M230 370 c0 -44 2 -80 5 -80 23 0 55 36 55 61 0 19 5 29 15 29 8 0
15 -9 15 -20 0 -24 4 -25 41 -3 24 14 29 24 29 55 l0 38 -80 0 -80 0 0 -80z"/>
</g>
</svg>
